<?xml version="1.0" ?><!DOCTYPE svg  PUBLIC '-//W3C//DTD SVG 1.1//EN'  'http://www.w3.org/Graphics/SVG/1.1/DTD/svg11.dtd'><svg height="100%" style="fill-rule:evenodd;clip-rule:evenodd;stroke-linejoin:round;stroke-miterlimit:1.41421;" version="1.1" viewBox="0 0 191 158" width="100%" xml:space="preserve" xmlns="http://www.w3.org/2000/svg" xmlns:xlink="http://www.w3.org/1999/xlink"><g transform="matrix(1,0,0,1,-231,-638)"><g transform="matrix(0.521811,0,0,0.521811,-0.958025,82.1712)"><g id="Social_Media_Twitter_Bird" transform="matrix(1,0,0,1,-1008.16,858.632)"><g id="Fill" transform="matrix(2.33379,0,0,2.33379,709.941,-372.281)"><path d="M322.144,360.255C328.393,366.398 371.256,389.523 418.895,358.285C455.349,334.381 455.937,287.214 456.018,281.142C459.227,279.822 470.182,269.966 471.045,266.54C467.068,267.548 461.161,270.7 454.122,270.829C457.123,268.916 467.718,259.136 467.105,254.067C463.585,255.851 454.674,260.613 447.78,261.066C445.851,258.487 429.006,244.734 410.28,255.502C391.553,266.27 394.849,285.434 395.629,289.494C391.937,289.291 361.241,290.638 332.422,257.318C327.982,267.041 322.508,283.584 341.303,298.407C338.598,298.713 331.158,297.46 328.284,294.944C327.697,299.623 328.161,317.742 351.307,325.119C347.215,326.451 345.557,326.767 338.554,325.119C340.222,329.934 344.969,346.285 366.867,347.408C362.355,350.663 348.991,363.88 322.144,360.255Z" style="fill:url(#_Linear1);"/></g><g id="Shine" transform="matrix(1.9164,0,0,1.9164,1.83596,-157.473)"><path d="M918.58,269.965C899.043,275.79 875.61,279.185 850.427,279.185C821.664,279.185 795.184,274.756 774.183,267.335C768.881,258.906 768.872,250.341 769.28,247.093C772.781,250.157 781.841,251.684 785.134,251.311C762.247,233.26 768.913,213.113 774.32,201.272C809.415,241.85 846.797,240.21 851.293,240.457C850.343,235.512 846.329,212.174 869.134,199.061C891.94,185.948 912.454,202.696 914.802,205.836C923.198,205.285 934.05,199.486 938.336,197.314C939.083,203.487 926.18,215.396 922.526,217.727C931.098,217.569 938.291,213.731 943.135,212.503C942.084,216.675 928.742,228.679 924.835,230.286C924.785,234.038 924.576,250.678 918.58,269.965Z" style="fill:url(#_Linear2);"/></g><g id="Stroke" transform="matrix(1.9164,0,0,1.9164,1.83596,-157.473)"><path d="M817.452,343.687C820.62,343.686 823.786,343.549 826.942,343.264C832.177,342.791 837.374,341.922 842.481,340.677C847.048,339.565 851.541,338.152 855.93,336.468C860.223,334.821 864.417,332.915 868.491,330.784C871.357,329.285 874.165,327.674 876.911,325.965C878.435,325.016 879.945,324.042 881.422,323.021C883.25,321.757 885.03,320.424 886.757,319.025C890.437,316.044 893.872,312.763 897.026,309.231C900.205,305.672 903.098,301.861 905.699,297.86C912.13,287.967 916.747,276.965 919.854,265.601C920.318,263.902 920.749,262.195 921.147,260.48C922.154,256.144 922.954,251.76 923.554,247.35C924.101,243.335 924.484,239.298 924.685,235.251C924.753,233.876 924.796,232.5 924.823,231.123L924.83,230.669L924.835,230.286C924.93,230.245 924.93,230.245 925.025,230.203C925.464,229.996 925.884,229.752 926.295,229.493C926.678,229.252 927.054,228.997 927.424,228.736C928.516,227.965 929.568,227.139 930.599,226.289C931.998,225.138 933.358,223.939 934.684,222.704C935.905,221.567 937.098,220.399 938.248,219.189C938.882,218.522 939.503,217.842 940.103,217.144C940.628,216.532 941.137,215.906 941.614,215.256C941.942,214.808 942.255,214.349 942.533,213.868C942.773,213.452 942.992,213.017 943.122,212.552L943.135,212.503C942.039,212.788 940.968,213.147 939.9,213.522C938.746,213.93 937.596,214.353 936.441,214.762C934.307,215.513 932.153,216.212 929.95,216.735C928.351,217.115 926.73,217.405 925.094,217.571C924.24,217.658 923.384,217.708 922.526,217.727C922.65,217.647 922.773,217.564 922.895,217.481C923.768,216.871 924.596,216.197 925.406,215.507C926.458,214.61 927.478,213.676 928.472,212.716C929.842,211.392 931.163,210.016 932.416,208.581C933.55,207.282 934.632,205.933 935.605,204.508C936.07,203.826 936.51,203.126 936.907,202.402C937.247,201.782 937.556,201.142 937.808,200.48C938.173,199.521 938.43,198.493 938.351,197.46L938.344,197.386L938.336,197.314C937.517,197.73 936.7,198.149 935.881,198.564C935.044,198.984 934.206,199.402 933.362,199.81C930.301,201.288 927.18,202.659 923.965,203.768C922.639,204.225 921.296,204.637 919.935,204.979C918.64,205.304 917.326,205.567 915.998,205.725C915.601,205.773 915.202,205.808 914.802,205.836C914.742,205.757 914.742,205.758 914.679,205.679C914.288,205.212 913.85,204.785 913.401,204.375C912.78,203.809 912.131,203.275 911.466,202.763C909.398,201.173 907.168,199.789 904.846,198.602C900.311,196.286 895.362,194.73 890.283,194.263C889.193,194.162 888.098,194.112 887.003,194.114C885.115,194.117 883.227,194.275 881.365,194.59C879.452,194.912 877.568,195.398 875.735,196.034C872.775,197.059 869.961,198.474 867.323,200.159C864.007,202.279 860.976,204.856 858.462,207.89C857.121,209.507 855.93,211.248 854.913,213.086C854.246,214.291 853.653,215.537 853.137,216.814C852.825,217.587 852.54,218.37 852.284,219.163C850.514,224.628 850.075,230.477 850.657,236.176C850.795,237.53 850.997,238.874 851.246,240.212L851.293,240.457C851.12,240.448 850.948,240.443 850.776,240.438C850.078,240.421 849.381,240.406 848.683,240.386C847.507,240.346 846.331,240.287 845.157,240.199C843.27,240.059 841.387,239.852 839.514,239.582C830.972,238.351 822.632,235.831 814.766,232.294C809.384,229.874 804.22,226.975 799.321,223.685C793.172,219.555 787.445,214.812 782.158,209.628C780.316,207.822 778.528,205.963 776.791,204.056C775.955,203.139 775.134,202.209 774.32,201.272C774.148,201.65 773.978,202.028 773.81,202.406C773.277,203.62 772.765,204.843 772.294,206.082C771.433,208.34 770.696,210.648 770.145,213.003C769.536,215.597 769.154,218.248 769.074,220.912C768.988,223.761 769.253,226.618 769.903,229.394C770.366,231.375 771.023,233.31 771.853,235.168C773.024,237.787 774.535,240.247 776.285,242.519C778.089,244.861 780.141,247.006 782.345,248.973C783.251,249.781 784.184,250.557 785.134,251.311C785.026,251.322 784.918,251.332 784.809,251.34C783.961,251.395 783.109,251.357 782.264,251.286C781.178,251.196 780.097,251.044 779.025,250.849C777.95,250.654 776.882,250.413 775.829,250.123C774.837,249.85 773.857,249.532 772.902,249.15C772.312,248.914 771.731,248.653 771.169,248.355C770.498,247.999 769.856,247.59 769.28,247.093C769.263,247.236 769.247,247.378 769.232,247.521C769.119,248.707 769.1,249.9 769.148,251.09C769.198,252.344 769.324,253.596 769.519,254.837C769.933,257.472 770.66,260.059 771.687,262.521C772.465,264.387 773.417,266.18 774.526,267.87C776.258,270.509 778.373,272.885 780.758,274.95C783.881,277.653 787.445,279.813 791.204,281.51C792.572,282.127 793.967,282.685 795.381,283.188C796.023,283.417 796.669,283.632 797.317,283.841C796.945,283.961 796.573,284.081 796.199,284.198C795.406,284.442 794.608,284.674 793.796,284.85C793.036,285.015 792.265,285.128 791.488,285.176C789.931,285.273 788.37,285.116 786.832,284.873C785.136,284.604 783.458,284.232 781.787,283.841C781.972,284.379 782.154,284.919 782.34,285.457C782.552,286.065 782.768,286.672 782.995,287.274C783.325,288.145 783.676,289.008 784.054,289.859C784.874,291.707 785.821,293.494 786.905,295.201C788.338,297.456 790.035,299.551 791.962,301.403C793.311,302.7 794.775,303.877 796.331,304.917C799.212,306.84 802.397,308.276 805.716,309.256C808.076,309.953 810.5,310.423 812.944,310.708C814.048,310.836 815.157,310.924 816.267,310.984C816.132,311.083 815.997,311.182 815.863,311.282C814.997,311.937 814.149,312.617 813.294,313.285C812.939,313.56 812.584,313.834 812.228,314.107C810.491,315.425 808.711,316.686 806.866,317.849C804.421,319.39 801.872,320.765 799.235,321.949C795.901,323.444 792.431,324.632 788.882,325.503C785.372,326.365 781.789,326.918 778.185,327.189C774.591,327.459 770.977,327.449 767.382,327.201C765.516,327.072 763.657,326.876 761.803,326.629C761.897,326.721 761.992,326.811 762.089,326.901C762.863,327.605 763.698,328.239 764.554,328.84C765.527,329.522 766.531,330.161 767.551,330.771C768.976,331.622 770.436,332.416 771.919,333.164C773.558,333.991 775.226,334.763 776.915,335.484C781.199,337.315 785.62,338.828 790.117,340.043C796.125,341.667 802.278,342.756 808.478,343.294C810.084,343.434 811.694,343.536 813.305,343.602C814.222,343.639 815.139,343.661 816.057,343.677C816.522,343.682 816.987,343.686 817.452,343.687ZM817.448,347.793C814.335,347.786 811.224,347.654 808.123,347.385C801.525,346.812 794.979,345.639 788.594,343.884C783.823,342.572 779.137,340.938 774.602,338.958C772.868,338.201 771.156,337.392 769.474,336.526C767.862,335.696 766.277,334.814 764.733,333.863C763.678,333.214 762.642,332.533 761.64,331.804C760.697,331.117 759.78,330.388 758.942,329.575L758.58,329.173C758.478,329.025 758.366,328.883 758.274,328.728C757.997,328.263 757.814,327.744 757.738,327.208C757.585,326.13 757.874,325.015 758.532,324.148C758.75,323.86 759.005,323.602 759.291,323.382C759.577,323.161 759.89,322.978 760.223,322.839C760.723,322.631 761.263,322.523 761.804,322.524C762.146,322.524 762.39,322.566 762.717,322.609C762.959,322.64 763.201,322.67 763.442,322.7C763.801,322.743 764.16,322.785 764.518,322.825C765.792,322.96 767.068,323.072 768.347,323.149C770.818,323.297 773.297,323.326 775.77,323.219C778.638,323.095 781.499,322.787 784.325,322.277C787.047,321.785 789.736,321.104 792.36,320.228C795.282,319.253 798.122,318.036 800.845,316.595C802.452,315.744 804.014,314.813 805.538,313.822L805.817,313.638L805.917,313.572C805.643,313.5 805.37,313.426 805.097,313.35C803.944,313.022 802.804,312.654 801.682,312.231C799.527,311.42 797.443,310.421 795.471,309.232C792.874,307.667 790.478,305.774 788.355,303.609C786.252,301.464 784.421,299.059 782.872,296.487C781.616,294.4 780.546,292.204 779.632,289.946C779.32,289.174 779.025,288.394 778.745,287.61C778.489,286.895 778.246,286.176 778.001,285.457L777.904,285.177C777.859,285.012 777.803,284.849 777.768,284.681C777.697,284.345 777.67,284.001 777.685,283.658C777.716,282.971 777.921,282.295 778.278,281.708C778.546,281.268 778.897,280.879 779.307,280.568C779.605,280.343 779.857,280.206 780.197,280.055C780.279,280.019 780.367,279.996 780.452,279.967C780.23,279.8 780.009,279.632 779.789,279.463C778.85,278.728 777.938,277.962 777.063,277.152C775.442,275.651 773.946,274.015 772.606,272.258C770.995,270.145 769.612,267.859 768.492,265.45C766.885,261.992 765.817,258.287 765.324,254.507C765.16,253.25 765.059,251.985 765.028,250.718C764.996,249.455 765.035,248.19 765.165,246.932L765.185,246.755L765.204,246.601L765.299,246.088C765.352,245.922 765.395,245.753 765.459,245.591C765.586,245.267 765.754,244.96 765.959,244.678C766.267,244.256 766.655,243.894 767.097,243.616C767.687,243.245 768.37,243.029 769.066,242.993C769.414,242.975 769.763,243.001 770.104,243.071C770.616,243.176 771.106,243.379 771.542,243.667C771.757,243.809 771.938,243.972 772.136,244.128C772.201,244.178 772.267,244.226 772.334,244.273C772.414,244.327 772.494,244.38 772.576,244.431L772.59,244.44C772.44,244.238 772.292,244.036 772.145,243.832C772.032,243.673 771.919,243.514 771.807,243.354C771.21,242.492 770.639,241.614 770.106,240.711C769.101,239.007 768.222,237.229 767.492,235.39C766.69,233.367 766.07,231.271 765.647,229.136C765.117,226.465 764.897,223.735 764.964,221.013C765.044,217.726 765.534,214.451 766.341,211.266C766.883,209.129 767.553,207.028 768.327,204.964C768.974,203.236 769.694,201.538 770.453,199.857L770.583,199.572C770.663,199.421 770.734,199.265 770.824,199.12C771.003,198.828 771.219,198.56 771.465,198.322C771.711,198.084 771.986,197.877 772.283,197.707C773.179,197.196 774.255,197.039 775.259,197.275C775.592,197.354 775.915,197.473 776.218,197.632C776.522,197.79 776.805,197.986 777.06,198.214C777.332,198.458 777.588,198.775 777.825,199.047C777.958,199.199 778.092,199.351 778.225,199.503C778.491,199.804 778.758,200.105 779.026,200.405C779.817,201.285 780.616,202.159 781.428,203.02C782.987,204.673 784.589,206.287 786.232,207.857C791.114,212.52 796.374,216.793 801.996,220.534C806.695,223.661 811.645,226.413 816.803,228.707C823.998,231.907 831.602,234.22 839.39,235.413C841.744,235.773 844.113,236.024 846.489,236.175L846.532,236.177C846.51,235.941 846.49,235.705 846.47,235.468C846.447,235.169 846.426,234.871 846.407,234.572C846.349,233.594 846.314,232.616 846.311,231.637C846.303,229.368 846.453,227.098 846.776,224.852C847.158,222.192 847.784,219.565 848.671,217.027C849.553,214.503 850.694,212.07 852.083,209.784C853.772,207.002 855.826,204.447 858.159,202.177C860.356,200.04 862.794,198.158 865.387,196.525C867.78,195.019 870.303,193.716 872.939,192.689C876.399,191.34 880.043,190.471 883.744,190.151C885.44,190.004 887.146,189.971 888.847,190.049C895.666,190.362 902.333,192.467 908.279,195.782C910,196.741 911.665,197.802 913.252,198.97C913.865,199.42 914.466,199.887 915.052,200.373C915.502,200.746 915.944,201.129 916.371,201.529C916.549,201.501 916.727,201.47 916.904,201.438C919.537,200.954 922.096,200.127 924.592,199.17C927.079,198.216 929.509,197.119 931.904,195.954C933.295,195.277 934.673,194.573 936.052,193.869L936.475,193.654C936.637,193.585 936.794,193.505 936.96,193.446C937.292,193.327 937.638,193.252 937.99,193.223C938.341,193.193 938.695,193.209 939.042,193.269C940.088,193.452 941.04,194.047 941.663,194.907C941.869,195.193 942.038,195.504 942.166,195.833C942.229,195.997 942.282,196.166 942.324,196.336C942.398,196.637 942.432,196.946 942.453,197.254C942.472,197.536 942.477,197.819 942.47,198.101C942.417,199.975 941.799,201.793 940.981,203.462C940.448,204.552 939.821,205.596 939.145,206.603C938.245,207.944 937.252,209.219 936.216,210.457L936.185,210.493C936.968,210.211 937.751,209.927 938.536,209.649C938.815,209.551 939.094,209.455 939.373,209.359C940.012,209.143 940.653,208.934 941.301,208.747C941.487,208.694 941.664,208.644 941.851,208.594C942.115,208.524 942.343,208.464 942.626,208.429C943.156,208.363 943.698,208.401 944.214,208.541C944.729,208.682 945.216,208.924 945.639,209.25C945.922,209.467 946.175,209.721 946.392,210.003C946.609,210.286 946.788,210.596 946.925,210.925C947.062,211.254 947.156,211.6 947.203,211.953C947.251,212.307 947.253,212.665 947.208,213.018C947.172,213.304 947.102,213.583 947.018,213.857C946.857,214.381 946.639,214.887 946.388,215.374C946.261,215.62 946.126,215.861 945.984,216.099C945.622,216.707 945.219,217.29 944.796,217.858C944.295,218.53 943.765,219.181 943.218,219.818C941.894,221.361 940.478,222.825 939.021,224.244C937.274,225.945 935.463,227.582 933.59,229.144C932.103,230.383 930.577,231.582 928.965,232.656L928.893,232.703C928.879,233.192 928.862,233.68 928.843,234.169C928.825,234.598 928.806,235.026 928.786,235.454C928.716,236.814 928.63,238.172 928.523,239.529C928.153,244.23 927.557,248.914 926.743,253.559C925.915,258.282 924.861,262.965 923.565,267.582C920.402,278.855 915.782,289.763 909.445,299.628C906.706,303.893 903.65,307.955 900.285,311.746C896.929,315.526 893.269,319.034 889.341,322.216C887.534,323.68 885.671,325.075 883.757,326.398C882.226,327.457 880.661,328.467 879.081,329.451C876.138,331.283 873.125,333.005 870.048,334.602C865.729,336.845 861.281,338.843 856.725,340.558C852.389,342.192 847.955,343.569 843.453,344.666C838.248,345.935 832.952,346.828 827.618,347.325C824.431,347.621 821.232,347.773 818.031,347.792C817.837,347.793 817.642,347.793 817.448,347.793Z" style="fill:rgb(197,201,228);fill-rule:nonzero;"/></g><g id="SmallStroke" transform="matrix(1.9164,0,0,1.9164,1.83596,-157.473)"><path d="M817.452,343.482C820.712,343.481 823.971,343.335 827.218,343.032C832.45,342.545 837.644,341.66 842.745,340.401C851.535,338.232 860.03,334.946 868.062,330.776C871.04,329.23 873.954,327.564 876.802,325.791C878.411,324.79 880.003,323.76 881.558,322.677C883.374,321.412 885.143,320.077 886.859,318.678C890.588,315.636 894.063,312.283 897.247,308.673C900.272,305.243 903.034,301.583 905.527,297.748C911.946,287.873 916.555,276.89 919.656,265.546C920.119,263.851 920.549,262.146 920.947,260.434C921.952,256.104 922.752,251.726 923.351,247.322C923.916,243.171 924.306,238.996 924.5,234.811C924.564,233.43 924.603,232.048 924.624,230.666L924.63,230.283C924.635,230.257 924.636,230.23 924.646,230.206C924.683,230.117 924.766,230.093 924.846,230.058C924.877,230.044 924.908,230.03 924.939,230.016C925.041,229.969 925.141,229.919 925.24,229.869C926.07,229.431 926.849,228.899 927.609,228.352C928.588,227.646 929.537,226.898 930.468,226.131C931.734,225.09 932.967,224.009 934.172,222.899C935.282,221.876 936.37,220.827 937.425,219.747C938.138,219.017 938.837,218.273 939.513,217.508C940.065,216.883 940.603,216.244 941.111,215.583C941.467,215.121 941.809,214.647 942.12,214.154C942.392,213.722 942.645,213.274 942.827,212.797C942.636,212.848 942.447,212.904 942.258,212.959C941.488,213.192 940.727,213.449 939.969,213.715C938.814,214.124 937.664,214.546 936.509,214.955C935.111,215.447 933.706,215.919 932.283,216.331C930.313,216.901 928.309,217.359 926.277,217.637C925.433,217.752 924.585,217.837 923.734,217.886C923.467,217.901 923.2,217.913 922.933,217.922C922.91,217.923 922.555,217.933 922.531,217.932C922.501,217.931 922.473,217.921 922.444,217.915L922.373,217.863L922.33,217.787L922.323,217.699L922.353,217.617L922.415,217.554C922.537,217.475 922.658,217.394 922.778,217.312C922.917,217.215 923.055,217.116 923.192,217.016C924.121,216.329 925.009,215.589 925.877,214.828C926.953,213.885 927.998,212.905 929.014,211.898C930.255,210.667 931.453,209.392 932.591,208.065C933.599,206.889 934.562,205.672 935.435,204.392C935.897,203.716 936.333,203.022 936.726,202.304C937.017,201.774 937.284,201.23 937.512,200.67C937.897,199.727 938.187,198.716 938.159,197.689L938.157,197.635C937.429,198.006 936.702,198.378 935.973,198.747C935.465,199.002 934.957,199.257 934.447,199.509C931.726,200.845 928.967,202.109 926.136,203.195C923.921,204.044 921.661,204.793 919.35,205.332C918.186,205.604 917.008,205.821 915.819,205.952C915.552,205.982 915.284,206.007 915.015,206.027C914.921,206.034 914.78,206.068 914.689,206.007C914.646,205.979 914.612,205.925 914.583,205.887C914.562,205.861 914.541,205.835 914.52,205.809C914.448,205.723 914.449,205.724 914.375,205.639C913.937,205.148 913.459,204.695 912.965,204.26C912.374,203.738 911.76,203.243 911.132,202.766C909.229,201.325 907.194,200.056 905.077,198.953C900.41,196.52 895.291,194.896 890.035,194.447C889.027,194.361 888.015,194.317 887.004,194.319C885.127,194.322 883.25,194.48 881.399,194.792C879.498,195.113 877.625,195.596 875.803,196.227C872.858,197.248 870.058,198.655 867.434,200.332C865.704,201.438 864.051,202.667 862.509,204.024C860.871,205.466 859.36,207.052 858.015,208.772C856.79,210.337 855.705,212.011 854.777,213.769C854.176,214.908 853.64,216.082 853.172,217.281C850.842,223.255 850.213,229.802 850.861,236.155C850.99,237.412 851.173,238.66 851.397,239.903L851.448,240.174L851.494,240.419L851.495,240.492C851.486,240.515 851.482,240.54 851.469,240.562C851.444,240.605 851.403,240.637 851.356,240.652C851.332,240.66 851.307,240.659 851.282,240.662C851.112,240.654 850.941,240.648 850.77,240.643C850.072,240.626 849.375,240.612 848.677,240.591C848.296,240.578 847.915,240.563 847.534,240.547C846.609,240.504 845.684,240.448 844.761,240.375C842.997,240.235 841.237,240.037 839.485,239.785C831.19,238.59 823.084,236.181 815.418,232.809C810.199,230.513 805.182,227.767 800.408,224.651C790.673,218.295 781.99,210.415 774.375,201.648C774.205,202.025 774.037,202.402 773.871,202.78C773.339,204 772.831,205.231 772.363,206.477C771.514,208.742 770.792,211.057 770.26,213.417C769.704,215.88 769.355,218.393 769.279,220.919C769.194,223.749 769.457,226.589 770.103,229.347C770.563,231.316 771.216,233.238 772.041,235.084C773.205,237.689 774.708,240.135 776.448,242.394C778.244,244.726 780.287,246.861 782.482,248.82C783.384,249.625 784.314,250.398 785.262,251.15L785.314,251.211L785.338,251.288L785.332,251.368L785.294,251.439L785.233,251.491L785.156,251.515C785.045,251.526 784.935,251.536 784.823,251.545C783.882,251.606 782.934,251.556 781.995,251.469C780.792,251.357 779.595,251.175 778.409,250.941C777.425,250.747 776.448,250.515 775.483,250.239C774.676,250.009 773.877,249.748 773.093,249.446C771.827,248.957 770.582,248.364 769.498,247.538L769.441,247.494C769.334,248.528 769.312,249.572 769.338,250.611C769.372,252.016 769.504,253.418 769.722,254.805C770.143,257.485 770.889,260.114 771.948,262.612C772.708,264.405 773.629,266.129 774.698,267.758C776.42,270.38 778.521,272.742 780.892,274.795C784,277.485 787.548,279.634 791.289,281.323C792.652,281.938 794.041,282.493 795.45,282.995C796.09,283.223 796.734,283.438 797.38,283.646L797.455,283.688L797.505,283.757L797.523,283.841L797.505,283.925L797.455,283.994L797.381,284.036C797.008,284.157 796.634,284.277 796.26,284.394C795.461,284.64 794.657,284.873 793.84,285.05C793.069,285.217 792.288,285.332 791.5,285.381C789.928,285.479 788.352,285.321 786.8,285.076C785.233,284.828 783.681,284.49 782.135,284.133L782.101,284.125C782.333,284.804 782.562,285.483 782.804,286.157C783.122,287.047 783.459,287.929 783.822,288.801C784.795,291.135 785.957,293.392 787.348,295.505C788.408,297.118 789.599,298.645 790.918,300.054C792.106,301.322 793.397,302.494 794.776,303.551C797.462,305.609 800.475,307.215 803.655,308.364C806.385,309.351 809.229,310.007 812.104,310.395C813.49,310.582 814.882,310.704 816.278,310.779L816.359,310.801L816.425,310.852L816.464,310.926L816.471,311.009L816.444,311.088L816.388,311.15C816.253,311.248 816.12,311.347 815.986,311.447C815.121,312.101 814.274,312.779 813.42,313.447C813.065,313.723 812.709,313.997 812.352,314.27C810.511,315.668 808.621,316.999 806.658,318.221C804.173,319.768 801.581,321.143 798.9,322.322C796.014,323.591 793.028,324.63 789.98,325.435C786.929,326.241 783.817,326.812 780.681,327.162C774.612,327.84 768.464,327.694 762.412,326.916C762.532,327.023 762.655,327.127 762.778,327.231C763.668,327.972 764.61,328.647 765.574,329.286C766.635,329.99 767.725,330.65 768.832,331.28C771.792,332.962 774.875,334.427 778.021,335.726C782.255,337.476 786.614,338.921 791.046,340.078C796.594,341.525 802.261,342.518 807.971,343.043C809.748,343.206 811.53,343.324 813.313,343.396C814.229,343.433 815.144,343.456 816.06,343.472C816.524,343.477 816.988,343.481 817.452,343.482ZM817.451,343.893C814.627,343.887 811.804,343.773 808.989,343.543C802.598,343.021 796.254,341.915 790.064,340.242C785.439,338.992 780.895,337.428 776.497,335.528C774.725,334.763 772.976,333.942 771.259,333.058C769.889,332.353 768.539,331.607 767.219,330.811C766.155,330.169 765.108,329.494 764.098,328.768C763.281,328.18 762.483,327.56 761.752,326.866L761.66,326.777L761.612,326.706L761.598,326.622L761.618,326.54L761.67,326.473L761.745,326.432L761.83,326.426C762.21,326.476 762.59,326.525 762.97,326.572C763.346,326.617 763.721,326.661 764.097,326.702C765.903,326.895 767.714,327.038 769.529,327.115C773.233,327.271 776.95,327.166 780.635,326.754C784.275,326.348 787.882,325.642 791.398,324.615C794.959,323.575 798.423,322.207 801.732,320.528C804.486,319.131 807.128,317.52 809.653,315.742C810.557,315.105 811.447,314.448 812.325,313.774C813.217,313.09 814.098,312.392 814.983,311.7C815.187,311.541 815.391,311.384 815.596,311.227L815.688,311.157C815.465,311.144 815.241,311.127 815.017,311.111C813.643,311.005 812.274,310.853 810.913,310.635C808.157,310.193 805.437,309.497 802.83,308.495C799.736,307.305 796.811,305.679 794.205,303.627C792.83,302.546 791.546,301.35 790.365,300.06C789.093,298.67 787.941,297.17 786.913,295.591C785.549,293.496 784.404,291.265 783.443,288.959C783.077,288.081 782.738,287.192 782.417,286.296C782.167,285.597 781.93,284.895 781.69,284.193L781.592,283.908L781.582,283.822L781.609,283.739L781.667,283.674L781.746,283.64L781.833,283.641C782.218,283.731 782.603,283.82 782.989,283.907C784.454,284.234 785.925,284.541 787.411,284.752C788.82,284.953 790.248,285.066 791.67,284.958C792.371,284.905 793.066,284.798 793.753,284.649C794.734,284.437 795.694,284.144 796.65,283.84C796.416,283.764 796.183,283.684 795.95,283.605C794.411,283.071 792.892,282.485 791.404,281.824C788.37,280.477 785.461,278.835 782.797,276.851C780.133,274.866 777.723,272.536 775.708,269.893C774.422,268.207 773.299,266.399 772.361,264.498C771.28,262.308 770.445,259.997 769.867,257.624C769.256,255.113 768.923,252.526 768.918,249.94C768.917,249.288 768.937,248.635 768.986,247.984C769.002,247.773 769.021,247.561 769.043,247.35C769.045,247.337 769.073,247.085 769.076,247.069C769.082,247.04 769.095,247.013 769.105,246.986L769.166,246.922L769.248,246.89L769.336,246.896L769.414,246.938C769.496,247.008 769.579,247.078 769.663,247.146C770.549,247.841 771.558,248.363 772.592,248.801C773.935,249.369 775.336,249.801 776.75,250.152C778.149,250.499 779.569,250.766 780.999,250.946C781.584,251.02 782.172,251.079 782.762,251.118C783.352,251.156 783.944,251.173 784.535,251.15L784.599,251.147C784.382,250.973 784.167,250.797 783.952,250.621C783.697,250.409 783.443,250.196 783.189,249.982C782.223,249.153 781.279,248.299 780.37,247.408C778.464,245.539 776.701,243.519 775.158,241.34C773.578,239.107 772.232,236.706 771.205,234.168C770.475,232.365 769.907,230.496 769.516,228.59C768.957,225.867 768.762,223.077 768.892,220.302C769.017,217.637 769.438,214.992 770.078,212.404C770.642,210.12 771.377,207.88 772.225,205.686C772.739,204.359 773.297,203.049 773.879,201.749L774.006,201.467L774.133,201.187L774.181,201.121L774.251,201.079L774.331,201.067L774.41,201.088L774.475,201.138C774.748,201.452 775.022,201.767 775.297,202.08C775.571,202.39 775.845,202.698 776.12,203.007C776.799,203.763 777.484,204.514 778.178,205.257C779.522,206.695 780.896,208.103 782.301,209.481C786.528,213.625 791.035,217.486 795.815,220.978C800.651,224.509 805.768,227.66 811.125,230.338C818.103,233.827 825.491,236.513 833.111,238.202C836.832,239.027 840.607,239.614 844.405,239.934C845.649,240.039 846.895,240.114 848.142,240.161C849.021,240.195 849.901,240.212 850.781,240.233L851.042,240.241C851.008,240.054 850.974,239.866 850.94,239.679C850.89,239.395 850.842,239.11 850.796,238.825C850.659,237.952 850.543,237.076 850.453,236.197C849.869,230.47 850.31,224.592 852.088,219.1C852.39,218.167 852.73,217.247 853.109,216.342C853.677,214.987 854.33,213.668 855.067,212.397C856.18,210.478 857.483,208.671 858.946,207.005C861.408,204.202 864.312,201.811 867.465,199.826C870.044,198.203 872.787,196.838 875.668,195.84C877.512,195.201 879.407,194.712 881.331,194.387C883.283,194.058 885.263,193.899 887.243,193.909C890.213,193.925 893.175,194.323 896.054,195.05C899.072,195.812 901.997,196.931 904.773,198.335C906.121,199.016 907.434,199.765 908.706,200.579C909.695,201.212 910.66,201.884 911.591,202.6C912.261,203.116 912.915,203.653 913.539,204.223C914.019,204.661 914.49,205.116 914.898,205.624C915.058,205.613 915.218,205.599 915.378,205.585C917.116,205.415 918.831,205.068 920.517,204.616C921.943,204.234 923.349,203.779 924.738,203.277C927.65,202.226 930.486,200.971 933.273,199.625C934.801,198.887 936.311,198.116 937.822,197.345L938.243,197.131C938.268,197.124 938.293,197.111 938.319,197.109C938.345,197.107 938.372,197.11 938.397,197.118C938.422,197.126 938.446,197.139 938.466,197.155C938.533,197.21 938.54,197.286 938.548,197.365C938.554,197.416 938.558,197.468 938.562,197.519C938.591,197.95 938.56,198.385 938.489,198.81C938.352,199.633 938.073,200.43 937.737,201.191C937.329,202.114 936.83,202.995 936.288,203.845C935.371,205.284 934.329,206.641 933.231,207.946C932.042,209.359 930.783,210.712 929.476,212.017C928.4,213.091 927.291,214.134 926.147,215.137C925.236,215.935 924.304,216.713 923.325,217.427L923.224,217.5C926.496,217.364 929.717,216.683 932.844,215.737C934.03,215.378 935.204,214.981 936.373,214.568C937.528,214.16 938.677,213.737 939.832,213.328C940.184,213.205 940.536,213.083 940.889,212.964C941.384,212.799 941.88,212.639 942.381,212.495C942.538,212.45 942.695,212.406 942.853,212.364C943.009,212.323 943.006,212.308 943.168,212.3L943.247,212.331L943.307,212.391L943.337,212.47C943.336,212.498 943.337,212.527 943.333,212.555C943.331,212.572 943.324,212.589 943.32,212.606C943.305,212.66 943.289,212.714 943.272,212.767C943.235,212.882 943.192,212.994 943.146,213.105C942.962,213.548 942.723,213.968 942.467,214.373C942.079,214.988 941.645,215.574 941.194,216.145C940.611,216.882 939.995,217.594 939.364,218.29C938.15,219.628 936.875,220.91 935.567,222.155C934.119,223.533 932.628,224.867 931.092,226.147C929.99,227.066 928.864,227.961 927.695,228.795C927.272,229.097 926.843,229.39 926.404,229.667C925.986,229.931 925.558,230.179 925.111,230.389L925.038,230.422C925.033,230.832 925.026,231.242 925.018,231.652C925.008,232.069 924.998,232.487 924.985,232.904C924.828,237.746 924.411,242.577 923.758,247.377C923.099,252.223 922.198,257.037 921.047,261.79C917.959,274.548 913.041,286.942 905.871,297.972C903.368,301.823 900.594,305.5 897.555,308.945C894.356,312.571 890.865,315.94 887.118,318.996C885.395,320.402 883.618,321.743 881.792,323.014C880.232,324.101 878.634,325.135 877.019,326.14C874.162,327.918 871.238,329.59 868.251,331.141C860.191,335.325 851.665,338.622 842.844,340.8C837.819,342.04 832.704,342.918 827.552,343.413C824.757,343.682 821.952,343.834 819.144,343.88C818.58,343.888 818.016,343.892 817.451,343.893Z" style="fill:rgb(115,123,182);fill-rule:nonzero;"/></g><g id="SmallHighlight" transform="matrix(1.03874,0.631955,-0.475028,0.780799,911.777,-494.742)"><ellipse cx="892.43" cy="210.237" rx="9.789" ry="4.773" style="fill:white;fill-opacity:0.444584;"/></g><g id="SmallHighlight1" transform="matrix(0.389101,0.14641,-0.26394,0.701451,1432.39,-54.4185)"><ellipse cx="892.43" cy="210.237" rx="9.789" ry="4.773" style="fill:white;fill-opacity:0.444584;"/></g></g></g></g><defs><linearGradient gradientTransform="matrix(7.53339e-15,-123.03,123.03,7.53339e-15,380.191,374.483)" gradientUnits="userSpaceOnUse" id="_Linear1" x1="0" x2="1" y1="0" y2="0"><stop offset="0%" style="stop-color:rgb(73,83,157);stop-opacity:1"/><stop offset="100%" style="stop-color:rgb(91,102,179);stop-opacity:1"/></linearGradient><linearGradient gradientTransform="matrix(1.44488e-14,-235.967,235.967,1.44488e-14,837.013,358.91)" gradientUnits="userSpaceOnUse" id="_Linear2" x1="0" x2="1" y1="0" y2="0"><stop offset="0%" style="stop-color:white;stop-opacity:0.449808"/><stop offset="100%" style="stop-color:white;stop-opacity:0"/></linearGradient></defs></svg>